# xmcd CD database file
#
# Track frame offsets:
#	150
#	13446
#	27208
#	39814
#	53670
#	66323
#	81233
#	95151
#	106610
#	123467
#	137223
#	149686
#	163867
#	179943
#	193240
#	204708
#	216717
#
# Disc length: 3037 seconds
#
# Revision: 0
# Processed by: cddbd v1.5.2PL0 Copyright (c) Steve Scherf et al.
# Submitted via: CDex 1.51
#
DISCID=130bdb11
DTITLE=Eartha Kitt - The Very Best Of - CD 2
DYEAR=2007
DGENRE=Blues
TTITLE0=Lovin' Spree
TTITLE1=Lonely Girl 
TTITLE2=Apres Moi 
TTITLE3=Mink Shmink 
TTITLE4=Somebody Stole de Wedding Bell 
TTITLE5=This Year's Santa Baby 
TTITLE6=Be Good Be Good Be Good 
TTITLE7=My Daddy Is a Dandy 
TTITLE8=Tea in Chicago 
TTITLE9=Looking for a Boy 
TTITLE10=If I Was a Boy 
TTITLE11=Uska Dara 
TTITLE12=Mrs Patterson 
TTITLE13=Easy Does It 
TTITLE14=Sandy's Tune 
TTITLE15=Hey Jacques 
TTITLE16=I Wantcha Around 
EXTD=YEAR: 2007
EXTT0=
EXTT1=
EXTT2=
EXTT3=
EXTT4=
EXTT5=
EXTT6=
EXTT7=
EXTT8=
EXTT9=
EXTT10=
EXTT11=
EXTT12=
EXTT13=
EXTT14=
EXTT15=
EXTT16=
PLAYORDER=
